<svg width="43" height="39" viewBox="0 0 43 39" fill="none" xmlns="http://www.w3.org/2000/svg">
<path d="M0 29.2504C0.258291 28.8802 0.620974 28.8124 1.05146 28.8188C2.56246 28.8382 4.07453 28.8263 5.58661 28.8263C5.73836 28.8263 5.8901 28.8263 6.10427 28.8263C6.10427 28.6003 6.10319 28.4088 6.10427 28.2172C6.16238 20.3372 6.24525 12.4583 6.26355 4.57824C6.26893 2.34833 7.72181 0.633929 9.51263 0.173311C9.9528 0.0603087 10.4231 0.0215647 10.8805 0.0215647C20.0057 0.012955 29.1319 0.0377082 38.2571 4.08383e-05C40.6366 -0.00964506 42.6502 1.70476 42.9602 3.93036C42.9892 4.137 42.9978 4.34793 42.9978 4.55779C43.0011 6.55955 43 8.56022 42.9989 10.562C42.9989 11.2766 42.7557 11.522 42.0432 11.522C39.9576 11.5241 37.8719 11.523 35.7872 11.523C35.6344 11.523 35.4827 11.523 35.2674 11.523C35.2674 11.7211 35.2674 11.8965 35.2674 12.0719C35.2674 18.9866 35.2717 25.9001 35.2653 32.8148C35.2631 35.7033 33.4863 38.0053 30.6957 38.6704C30.0144 38.833 29.2826 38.8286 28.5745 38.8297C21.0442 38.8405 13.514 38.8373 5.98481 38.8362C3.02523 38.8351 0.587611 36.7731 0.0753348 33.8447C0.0667251 33.7952 0.0258291 33.75 0 33.7037C0 32.2186 0 30.7345 0 29.2504ZM7.53993 28.8263C7.72612 28.8263 7.89078 28.8263 8.05544 28.8263C13.317 28.8263 18.5797 28.8263 23.8413 28.8263C24.6894 28.8263 24.9078 29.0437 24.9121 29.8875C24.9175 30.9928 24.8928 32.0991 24.9347 33.2033C25.0467 36.1198 28.088 38.1539 30.8496 37.1799C32.6469 36.546 33.8458 34.8273 33.8468 32.8546C33.8501 23.5056 33.8501 14.1576 33.8457 4.80855C33.8457 3.95081 34.0147 3.14473 34.4603 2.40752C34.6518 2.09112 34.8649 1.7887 35.1017 1.42817C34.8972 1.42817 34.7476 1.42817 34.5969 1.42817C26.732 1.42817 18.8671 1.42817 11.0021 1.42925C10.8062 1.42925 10.6104 1.43786 10.4145 1.44539C9.83657 1.46799 9.32752 1.68108 8.87121 2.02224C8.00593 2.67012 7.69275 3.56015 7.6863 4.61698C7.63572 12.5659 7.57114 20.5148 7.51195 28.4637C7.51088 28.5734 7.52809 28.6821 7.53993 28.8263ZM1.45504 30.2652C1.45504 31.3996 1.34957 32.5134 1.47764 33.6004C1.73162 35.7571 3.71616 37.4479 6.00741 37.4339C12.3861 37.3951 18.7648 37.421 25.1446 37.4188C25.2468 37.4188 25.348 37.3984 25.4761 37.3854C25.1984 37.068 24.9336 36.8011 24.7087 36.503C23.8682 35.3955 23.4754 34.1418 23.5001 32.7513C23.5141 31.9301 23.5023 31.109 23.5023 30.2652C16.1281 30.2652 8.8034 30.2652 1.45504 30.2652ZM35.2793 10.0766C37.4005 10.0766 39.4776 10.0766 41.5816 10.0766C41.5816 8.21906 41.5988 6.38843 41.5762 4.55779C41.5546 2.83801 40.2524 1.50135 38.5865 1.44109C36.8753 1.37867 35.3772 2.62599 35.2986 4.3447C35.2125 6.24206 35.2793 8.14588 35.2793 10.0766Z" fill="white"/>
<path d="M26.5013 10.7416C26.4571 11.7877 26.5034 12.8467 26.3463 13.8755C26.1343 15.2671 25.3863 16.3971 24.224 17.215C23.1047 18.0028 21.9639 18.7615 20.8382 19.5407C20.5132 19.7656 20.2033 19.8033 19.8707 19.5741C18.6514 18.7325 17.3976 17.9371 16.2202 17.0417C14.9019 16.0398 14.2249 14.6515 14.1948 12.9909C14.1657 11.383 14.1959 9.77408 14.1829 8.16515C14.1797 7.75942 14.3519 7.51512 14.7028 7.344C16.4204 6.50563 18.1369 5.66403 19.8492 4.8149C20.1774 4.6524 20.4809 4.66208 20.8038 4.82244C22.5171 5.67049 24.2326 6.51316 25.9492 7.35368C26.2989 7.5248 26.4711 7.77556 26.4625 8.18021C26.4442 9.03257 26.4571 9.88708 26.4571 10.7394C26.4722 10.7405 26.4873 10.7416 26.5013 10.7416ZM20.3141 18.1814C21.4097 17.4292 22.4902 16.7318 23.5223 15.9677C24.4683 15.2671 24.9989 14.2877 25.0322 13.105C25.072 11.6661 25.0516 10.225 25.0355 8.78505C25.0344 8.64514 24.9085 8.44173 24.7847 8.37931C23.3802 7.66471 21.9672 6.9684 20.5487 6.28285C20.4239 6.22259 20.2194 6.22474 20.0946 6.28501C18.688 6.96302 17.2867 7.6518 15.8941 8.35994C15.7596 8.42882 15.6175 8.64083 15.6154 8.78935C15.596 10.2153 15.582 11.6424 15.6132 13.0673C15.6391 14.235 16.1363 15.2197 17.0597 15.9203C18.1047 16.7103 19.211 17.4206 20.3141 18.1814Z" fill="white"/>
<path d="M20.6613 21.6006C23.3744 21.6006 26.0876 21.5995 28.7996 21.6016C29.3248 21.6016 29.5777 21.7706 29.6552 22.1548C29.7273 22.5143 29.5551 22.8414 29.2097 22.9448C29.0396 22.9953 28.8524 23.0126 28.6737 23.0126C23.3034 23.0158 17.9342 23.0158 12.5639 23.0126C12.3982 23.0126 12.226 22.9964 12.0688 22.948C11.7148 22.8393 11.5512 22.581 11.5921 22.2129C11.6308 21.8621 11.8428 21.6501 12.1872 21.6156C12.4918 21.5855 12.8017 21.6006 13.1095 21.6006C15.6279 21.6006 18.1441 21.6006 20.6613 21.6006Z" fill="white"/>
<path d="M20.6232 26.2241C17.9101 26.2241 15.197 26.2252 12.4838 26.223C11.9382 26.223 11.6326 26.0078 11.5906 25.6053C11.5497 25.2135 11.7811 24.8993 12.1836 24.8239C12.3192 24.7981 12.4623 24.8056 12.6011 24.8056C17.9435 24.8046 23.2858 24.8046 28.6281 24.8046C29.3438 24.8046 29.6935 25.0467 29.6817 25.5332C29.6699 26.0045 29.3395 26.2241 28.6367 26.2241C25.9655 26.2241 23.2944 26.2241 20.6232 26.2241Z" fill="white"/>
<path d="M19.6369 12.6014C20.3515 11.8847 21.0209 11.212 21.6925 10.5416C21.8012 10.4339 21.9131 10.3242 22.039 10.2402C22.3543 10.0293 22.6632 10.0842 22.9118 10.3457C23.1626 10.6083 23.1755 10.9204 22.9689 11.226C22.9064 11.3175 22.83 11.4015 22.7515 11.48C21.9314 12.3033 21.1124 13.1266 20.288 13.9456C19.8113 14.4191 19.4755 14.417 18.9976 13.9435C18.6199 13.5689 18.2454 13.1912 17.8741 12.8113C17.4802 12.4077 17.4382 11.9772 17.7568 11.6737C18.0775 11.367 18.4628 11.4079 18.862 11.8018C19.1117 12.0461 19.3485 12.3033 19.6369 12.6014Z" fill="white"/>
</svg>
