<svg width="177" height="88" viewBox="0 0 177 88" fill="none" xmlns="http://www.w3.org/2000/svg">
<path fill-rule="evenodd" clip-rule="evenodd" d="M37.8856 27.5112L43.4343 30.7114L48.9959 33.9245V40.1312L45.9248 38.1957V35.6923L41.8988 33.3696L37.8856 31.0469L33.8596 33.3696L29.8336 35.6923V40.3377V44.9831L31.9499 46.1961V49.7446L26.7754 46.7509V40.3377V33.9245L32.3241 30.7114L37.8856 27.5112ZM36.4404 48.7898L37.8856 49.6285L41.8988 47.3058L45.9248 44.9831V43.5508L48.9959 45.4476V46.7509L43.4343 49.9511L37.8856 53.1642L36.4404 52.3383V48.7898Z" fill="white"/>
<path fill-rule="evenodd" clip-rule="evenodd" d="M49.3705 27.6016L54.9321 30.8146L60.4808 34.0148V40.428V46.8413L54.9321 50.0543L49.3705 53.2545L44.4799 50.4286L47.3962 48.5833L49.3705 49.7188L53.3965 47.3961L57.4225 45.0734V40.428V35.7826L53.3965 33.4599L49.3705 31.1372L47.4091 32.2728L44.467 30.4275L49.3705 27.6016ZM39.8732 47.7704L38.2603 46.8413V40.428V34.0148L40.0281 32.9954L42.996 34.8277L41.3314 35.7826V40.428V45.0734L42.9057 45.9896L39.8732 47.7704Z" fill="white"/>
<path fill-rule="evenodd" clip-rule="evenodd" d="M43.8474 37.8086L49.4089 41.0217L54.9576 44.2218V45.7316L53.9124 46.3381V46.3123L51.8994 47.4736V45.9897L47.8734 43.667L43.8474 41.3443L42.0795 42.3766L42.1053 38.8151L43.8474 37.8086ZM54.9576 50.9319V57.0483L49.4089 60.2614L43.8474 63.4615L38.2987 60.2614L32.75 57.0483V50.6351V44.2218L37.5502 41.4475V44.9832L35.8082 45.9897V50.6351V55.2805L39.8342 57.6032L43.8474 59.9259L47.8734 57.6032L51.8994 55.2805V52.6739L52.08 52.5707L54.9576 50.9319Z" fill="white"/>
<path fill-rule="evenodd" clip-rule="evenodd" d="M43.5375 0.580566L62.5062 32.9822L81.4878 65.3839H43.5375H5.57422L24.5558 32.9822L43.5375 0.580566ZM43.5375 4.42593L8.98085 63.4354H78.0941L43.5375 4.42593Z" fill="white"/>
<path fill-rule="evenodd" clip-rule="evenodd" d="M4.02602 62.0423C1.44524 56.4549 0 50.2352 0 43.68C0 20.6595 17.7687 1.79399 40.3376 0.0390625L4.02602 62.0423Z" fill="white"/>
<path fill-rule="evenodd" clip-rule="evenodd" d="M79.9137 68.4033C72.0165 79.9136 58.7771 87.4624 43.7828 87.4624C28.7755 87.4624 15.5361 79.9136 7.65186 68.4033H79.9137Z" fill="white"/>
<path fill-rule="evenodd" clip-rule="evenodd" d="M46.6992 0C69.5133 1.50976 87.553 20.4785 87.553 43.6797C87.553 50.4155 86.0303 56.8029 83.3076 62.5065L46.6992 0Z" fill="white"/>
<path fill-rule="evenodd" clip-rule="evenodd" d="M120.352 49.6261V46.1807H104.042V24.1796H108.88V41.8063H117.552V24.1796H122.391V41.8063H125.01V49.6261H124.455H120.352ZM176.265 49.6261H176.807V41.8063H174.174V24.1796H158.173V26.7475C158.173 30.3606 157.98 33.2639 157.606 35.4963C157.231 37.7158 156.612 39.8191 155.747 41.8063H153.67V49.6261H158.122L158.354 46.1807H172.122V49.6261H176.265ZM141.231 46.5549C138.005 46.5549 135.308 45.4581 133.166 43.2774C131.011 41.0837 129.94 38.3868 129.94 35.1737C129.94 31.9865 131.024 29.3024 133.179 27.0959C135.333 24.9022 138.082 23.7925 141.411 23.7925C143.321 23.7925 144.921 24.1022 146.224 24.7216C147.528 25.3409 148.766 26.2313 149.941 27.3798L147.037 30.709C146.095 29.8573 145.218 29.225 144.392 28.8379C143.553 28.4508 142.56 28.2572 141.385 28.2572C139.54 28.2572 138.017 28.9282 136.804 30.2573C135.604 31.5864 134.998 33.2252 134.998 35.1737C134.998 37.1093 135.604 38.7352 136.804 40.0772C138.017 41.4192 139.54 42.0902 141.385 42.0902C142.56 42.0902 143.579 41.8837 144.431 41.4579C145.295 41.045 146.199 40.3998 147.166 39.5094L150.25 42.8128C149.05 44.0903 147.76 45.0323 146.366 45.6388C144.973 46.2582 143.256 46.5549 141.231 46.5549ZM169.335 28.5411H162.819V30.7735C162.819 34.9285 162.161 38.6061 160.844 41.8063H169.335V28.5411Z" fill="white"/>
<path d="M106.815 57.8846V57.0458H103.822V53.0069H104.699V56.2329H106.299V53.0069H107.19V56.2329H107.667L107.551 57.8846H106.815ZM108.287 57.0458V53.0069H111.332V53.794H109.164V54.607H111.074V55.407H109.164V56.2458H111.358V57.0458H108.287ZM112.158 57.0458V53.0069H113.035V54.5941H114.674V53.0069H115.564V57.0458H114.674V55.4199H113.035V57.0458H112.158ZM117.474 57.0458V53.8198H116.248V53.0069H119.59V53.8198H118.364V57.0458H117.474ZM120.274 57.0458V53.0069H121.926C122.403 53.0069 122.778 53.1359 123.049 53.394C123.332 53.6521 123.462 53.9876 123.462 54.4134C123.462 54.8651 123.32 55.2135 123.01 55.4586C122.7 55.7038 122.313 55.8329 121.836 55.8329H121.165V57.0458H120.274ZM121.165 55.0328H121.861C122.081 55.0328 122.249 54.9812 122.378 54.8651C122.507 54.7489 122.571 54.5941 122.571 54.4134C122.571 54.2199 122.507 54.065 122.378 53.9618C122.249 53.8586 122.068 53.8069 121.849 53.8069H121.165V55.0328ZM127.746 57.1103C127.152 57.1103 126.662 56.9039 126.262 56.5039C125.875 56.1038 125.681 55.6135 125.681 55.0199C125.681 54.4392 125.875 53.9489 126.275 53.536C126.662 53.1359 127.165 52.9295 127.784 52.9295C128.133 52.9295 128.43 52.994 128.662 53.0972C128.907 53.2134 129.126 53.3811 129.346 53.5876L128.817 54.207C128.636 54.0392 128.481 53.936 128.326 53.8586C128.171 53.794 127.991 53.7553 127.771 53.7553C127.436 53.7553 127.152 53.8715 126.933 54.1166C126.713 54.3618 126.61 54.6586 126.61 55.0199C126.61 55.3812 126.713 55.678 126.933 55.9232C127.152 56.1684 127.436 56.2845 127.771 56.2845C127.991 56.2845 128.171 56.2458 128.339 56.1684C128.494 56.1038 128.662 55.9748 128.842 55.8199L129.397 56.4264C129.178 56.6587 128.946 56.8265 128.688 56.9426C128.43 57.0587 128.12 57.1103 127.746 57.1103ZM130.107 57.0458V53.0069H133.152V53.794H130.997V54.607H132.894V55.407H130.997V56.2458H133.191V57.0458H130.107ZM133.978 57.0458V53.0069H135.63C136.107 53.0069 136.482 53.1359 136.753 53.394C137.036 53.6521 137.165 53.9876 137.165 54.4134C137.165 54.8651 137.011 55.2135 136.714 55.4586C136.404 55.7038 136.017 55.8329 135.54 55.8329H134.869V57.0458H133.978ZM134.869 55.0328H135.565C135.785 55.0328 135.952 54.9812 136.082 54.8651C136.211 54.7489 136.275 54.5941 136.275 54.4134C136.275 54.2199 136.211 54.065 136.082 53.9618C135.952 53.8586 135.772 53.8069 135.552 53.8069H134.869V55.0328ZM138.766 57.0458V53.8198H137.54V53.0069H140.882V53.8198H139.656V57.0458H138.766ZM145.037 53.0069V57.0458H144.172V54.3876L142.404 57.0458H141.566V53.0069H142.443V55.6522L144.224 53.0069H145.037ZM148.663 54.0005V55.9748C148.985 55.9748 149.243 55.8845 149.45 55.7038C149.644 55.5232 149.747 55.2909 149.747 54.9812C149.747 54.6844 149.644 54.4521 149.45 54.2715C149.243 54.0908 148.985 54.0005 148.663 54.0005ZM148.663 57.2007H147.772V56.7619C147.153 56.7619 146.676 56.5942 146.314 56.2587C145.953 55.9232 145.772 55.4973 145.772 54.9683C145.772 54.4521 145.953 54.0392 146.314 53.7037C146.676 53.3811 147.153 53.2134 147.772 53.2134V52.8521H148.663V53.2134C149.269 53.2134 149.747 53.3811 150.121 53.7037C150.482 54.0392 150.663 54.465 150.663 54.9812C150.663 55.4973 150.482 55.9232 150.121 56.2587C149.76 56.5942 149.269 56.7619 148.663 56.7619V57.2007ZM147.772 55.9748V54.0005C147.45 54.0005 147.179 54.0908 146.985 54.2715C146.779 54.4521 146.676 54.6844 146.676 54.9812C146.676 55.2909 146.779 55.5232 146.985 55.7038C147.179 55.8845 147.45 55.9748 147.772 55.9748ZM154.87 53.0069V57.0458H153.992V54.3876L152.224 57.0458H151.386V53.0069H152.263V55.6522L154.044 53.0069H154.87ZM155.837 57.0458V53.0069H156.728V54.7618L158.354 53.0069H159.438L157.786 54.7102L159.502 57.0458H158.444L157.192 55.3167L156.728 55.807V57.0458H155.837ZM159.696 57.0458L161.425 52.9682H162.251L163.98 57.0458H163.051L162.676 56.1296H160.973L160.599 57.0458H159.696ZM161.296 55.3554H162.367L161.825 54.0392L161.296 55.3554ZM167.593 57.8846V57.0458H164.599V53.0069H165.489V56.2329H167.077V53.0069H167.967V56.2329H168.444L168.328 57.8846H167.593ZM172.548 53.0069V57.0458H171.67V54.3876L169.903 57.0458H169.064V53.0069H169.941V55.6522L171.722 53.0069H172.548ZM177 53.0069V57.0458H176.122V54.3876L174.354 57.0458H173.516V53.0069H174.393V55.6522L176.174 53.0069H177ZM111.164 59.9363V63.9752H110.287V61.3299L108.519 63.9752H107.68V59.9363H108.558V62.5816L110.338 59.9363H111.164ZM113.435 64.814V63.1752H113.809C113.977 62.801 114.08 62.4138 114.158 62.0138C114.222 61.6009 114.261 61.0718 114.261 60.4008V59.9363H117.19V63.1752H117.681L117.564 64.814H116.816V63.9752H114.3L114.235 64.814H113.435ZM116.313 60.7363H115.113V61.1493C115.113 61.9106 114.997 62.5816 114.751 63.1752H116.313V60.7363ZM118.3 63.9752V59.9363H121.345V60.7234H119.19V61.5364H121.087V62.3364H119.19V63.1752H121.371V63.9752H118.3ZM122.171 63.9752V59.9363H123.049V61.7041L124.687 59.9363H125.771L124.12 61.6525L125.836 63.9752H124.778L123.526 62.2461L123.049 62.7364V63.9752H122.171ZM126.907 59.9363H129.797V63.9752H128.907V60.7363H127.746V61.046C127.746 61.8332 127.694 62.4396 127.604 62.8784C127.513 63.3042 127.371 63.6139 127.191 63.7687C127.01 63.9365 126.752 64.0268 126.429 64.0268C126.249 64.0268 126.094 64.001 125.965 63.9752L126.029 63.2397C126.081 63.2397 126.12 63.2526 126.158 63.2526C126.287 63.2526 126.404 63.2268 126.481 63.1623C126.571 63.1106 126.649 62.9945 126.713 62.8268C126.791 62.659 126.842 62.4009 126.868 62.0654C126.894 61.7299 126.907 61.3041 126.907 60.775V59.9363ZM130.417 63.9752L132.146 59.9105H132.972L134.701 63.9752H133.772L133.398 63.059H131.694L131.32 63.9752H130.417ZM132.017 62.2848H133.088L132.546 60.9686L132.017 62.2848ZM135.32 63.9752V59.9363H136.972C137.449 59.9363 137.824 60.0653 138.107 60.3234C138.378 60.5815 138.52 60.917 138.52 61.3428C138.52 61.7944 138.366 62.1429 138.056 62.388C137.746 62.6332 137.359 62.7622 136.882 62.7622H136.211V63.9752H135.32ZM136.211 61.9751H136.907C137.127 61.9751 137.307 61.9106 137.424 61.7944C137.553 61.6783 137.617 61.5364 137.617 61.3428C137.617 61.1493 137.553 60.9944 137.424 60.8912C137.294 60.7879 137.127 60.7363 136.894 60.7363H136.211V61.9751ZM142.65 59.9363V63.9752H141.772V61.3299L140.004 63.9752H139.178V59.9363H140.056V62.5816L141.824 59.9363H142.65ZM143.617 63.9752V59.9363H145.269C145.747 59.9363 146.121 60.0653 146.405 60.3234C146.676 60.5815 146.818 60.917 146.818 61.3428C146.818 61.7944 146.663 62.1429 146.353 62.388C146.043 62.6332 145.656 62.7622 145.179 62.7622H144.508V63.9752H143.617ZM144.508 61.9751H145.217C145.437 61.9751 145.605 61.9106 145.734 61.7944C145.85 61.6783 145.914 61.5364 145.914 61.3428C145.914 61.1493 145.85 60.9944 145.721 60.8912C145.605 60.7879 145.424 60.7363 145.192 60.7363H144.508V61.9751ZM150.973 63.4332C150.56 63.8333 150.044 64.0397 149.437 64.0397C148.818 64.0397 148.314 63.8333 147.901 63.4332C147.501 63.0332 147.295 62.5429 147.295 61.9493C147.295 61.3686 147.501 60.8783 147.914 60.4783C148.314 60.0653 148.831 59.8589 149.45 59.8589C150.056 59.8589 150.573 60.0653 150.973 60.4653C151.386 60.8783 151.592 61.3686 151.592 61.9493C151.592 62.53 151.386 63.0203 150.973 63.4332ZM148.572 62.8526C148.805 63.0977 149.089 63.2268 149.45 63.2268C149.798 63.2268 150.095 63.0977 150.315 62.8526C150.547 62.6074 150.663 62.3106 150.663 61.9493C150.663 61.6009 150.547 61.3041 150.315 61.0589C150.082 60.8009 149.785 60.6847 149.437 60.6847C149.076 60.6847 148.792 60.8009 148.56 61.046C148.34 61.2912 148.224 61.6009 148.224 61.9493C148.224 62.3106 148.34 62.6074 148.572 62.8526ZM152.379 63.9752V59.9363H154.25C154.715 59.9363 155.063 60.0524 155.308 60.2976C155.489 60.4783 155.579 60.7105 155.579 60.9944C155.579 61.3686 155.412 61.6654 155.05 61.859C155.308 61.9622 155.489 62.0783 155.618 62.2332C155.747 62.388 155.812 62.6074 155.812 62.8655C155.812 63.2268 155.67 63.4978 155.399 63.6913C155.141 63.872 154.766 63.9752 154.302 63.9752H152.379ZM153.244 61.5622H154.057C154.482 61.5622 154.702 61.4202 154.702 61.1234C154.702 60.9944 154.65 60.8912 154.547 60.8138C154.457 60.7492 154.302 60.7105 154.121 60.7105H153.244V61.5622ZM153.244 63.1881H154.302C154.715 63.1881 154.921 63.0461 154.921 62.7364C154.921 62.4525 154.702 62.2977 154.263 62.2977H153.244V63.1881ZM156.199 63.9752L157.928 59.9105H158.741L160.47 63.9752H159.541L159.179 63.059H157.463L157.102 63.9752H156.199ZM157.786 62.2848H158.857L158.328 60.9686L157.786 62.2848ZM161.102 63.9752V59.9363H161.98V61.5364H163.618V59.9363H164.509V63.9752H163.618V62.3493H161.98V63.9752H161.102ZM168.961 59.9363V63.9752H168.083V61.3299L166.315 63.9752H165.477V59.9363H166.354V62.5816L168.135 59.9363H168.961ZM173.116 59.9363V63.9752H172.238V62.6848H171.541L170.664 63.9752H169.632L170.612 62.53C170.045 62.3106 169.748 61.8977 169.748 61.2654C169.748 60.8525 169.89 60.5299 170.161 60.2847C170.432 60.0524 170.806 59.9363 171.27 59.9363H173.116ZM171.335 61.8977H172.238V60.7363H171.348C171.129 60.7363 170.961 60.7879 170.832 60.8912C170.716 60.9815 170.651 61.1364 170.651 61.3299C170.651 61.4977 170.716 61.6396 170.832 61.7428C170.961 61.8461 171.129 61.8977 171.335 61.8977Z" fill="white"/>
</svg>
