<svg width="177" height="88" viewBox="0 0 177 88" fill="none" xmlns="http://www.w3.org/2000/svg">
<path fill-rule="evenodd" clip-rule="evenodd" d="M37.8856 27.5111L43.4343 30.7112L48.9959 33.9243V40.1311L45.9248 38.1955V35.6921L41.8988 33.3694L37.8856 31.0467L33.8596 33.3694L29.8336 35.6921V40.3376V44.983L31.9499 46.1959V49.7445L26.7754 46.7508V40.3376V33.9243L32.3241 30.7112L37.8856 27.5111ZM36.4404 48.7896L37.8856 49.6284L41.8988 47.3057L45.9248 44.983V43.5506L48.9959 45.4475V46.7508L43.4343 49.951L37.8856 53.164L36.4404 52.3382V48.7896Z" fill="#FFED00"/>
<path fill-rule="evenodd" clip-rule="evenodd" d="M49.3705 27.6014L54.9321 30.8144L60.4808 34.0146V40.4279V46.8411L54.9321 50.0542L49.3705 53.2543L44.4799 50.4284L47.3962 48.5831L49.3705 49.7187L53.3965 47.396L57.4225 45.0733V40.4279V35.7824L53.3965 33.4597L49.3705 31.137L47.4091 32.2726L44.467 30.4273L49.3705 27.6014ZM39.8732 47.7702L38.2603 46.8411V40.4279V34.0146L40.0281 32.9952L42.996 34.8276L41.3314 35.7824V40.4279V45.0733L42.9057 45.9894L39.8732 47.7702Z" fill="#EF7F1A"/>
<path fill-rule="evenodd" clip-rule="evenodd" d="M43.8474 37.8084L49.4089 41.0215L54.9576 44.2216V45.7314L53.9124 46.3379V46.3121L51.8994 47.4734V45.9895L47.8734 43.6668L43.8474 41.3441L42.0795 42.3764L42.1053 38.8149L43.8474 37.8084ZM54.9576 50.9317V57.0481L49.4089 60.2612L43.8474 63.4614L38.2987 60.2612L32.75 57.0481V50.6349V44.2216L37.5502 41.4473V44.983L35.8082 45.9895V50.6349V55.2803L39.8342 57.603L43.8474 59.9257L47.8734 57.603L51.8994 55.2803V52.6737L52.08 52.5705L54.9576 50.9317Z" fill="#8E2E1E"/>
<path fill-rule="evenodd" clip-rule="evenodd" d="M43.5375 0.580688L62.5062 32.9824L81.4878 65.384H43.5375H5.57422L24.5558 32.9824L43.5375 0.580688ZM43.5375 4.42605L8.98085 63.4356H78.0941L43.5375 4.42605Z" fill="#8E2E1E"/>
<path fill-rule="evenodd" clip-rule="evenodd" d="M4.02602 62.0422C1.44524 56.4548 0 50.2352 0 43.68C0 20.6594 17.7687 1.79393 40.3376 0.0390015L4.02602 62.0422Z" fill="#FFED00"/>
<path fill-rule="evenodd" clip-rule="evenodd" d="M79.9137 68.4035C72.0165 79.9138 58.7771 87.4626 43.7828 87.4626C28.7755 87.4626 15.5361 79.9138 7.65186 68.4035H79.9137Z" fill="#8E2E1E"/>
<path fill-rule="evenodd" clip-rule="evenodd" d="M46.6992 0C69.5133 1.50976 87.553 20.4785 87.553 43.6797C87.553 50.4155 86.0303 56.8029 83.3076 62.5065L46.6992 0Z" fill="#EF7F1A"/>
<path fill-rule="evenodd" clip-rule="evenodd" d="M120.352 49.6261V46.1808H104.042V24.1797H108.88V41.8064H117.552V24.1797H122.391V41.8064H125.01V49.6261H124.455H120.352ZM176.265 49.6261H176.807V41.8064H174.174V24.1797H158.173V26.7475C158.173 30.3606 157.98 33.264 157.606 35.4964C157.231 37.7158 156.612 39.8192 155.747 41.8064H153.67V49.6261H158.122L158.354 46.1808H172.122V49.6261H176.265ZM141.231 46.555C138.005 46.555 135.308 45.4582 133.166 43.2774C131.011 41.0838 129.94 38.3868 129.94 35.1738C129.94 31.9865 131.024 29.3025 133.179 27.0959C135.333 24.9023 138.082 23.7925 141.411 23.7925C143.321 23.7925 144.921 24.1022 146.224 24.7216C147.528 25.341 148.766 26.2314 149.941 27.3798L147.037 30.709C146.095 29.8574 145.218 29.2251 144.392 28.838C143.553 28.4508 142.56 28.2573 141.385 28.2573C139.54 28.2573 138.017 28.9283 136.804 30.2574C135.604 31.5865 134.998 33.2253 134.998 35.1738C134.998 37.1094 135.604 38.7353 136.804 40.0773C138.017 41.4193 139.54 42.0903 141.385 42.0903C142.56 42.0903 143.579 41.8838 144.431 41.458C145.295 41.045 146.199 40.3999 147.166 39.5095L150.25 42.8129C149.05 44.0904 147.76 45.0324 146.366 45.6388C144.973 46.2582 143.256 46.555 141.231 46.555ZM169.335 28.5412H162.819V30.7735C162.819 34.9286 162.161 38.6062 160.844 41.8064H169.335V28.5412Z" fill="#EF7F1A"/>
<path d="M106.815 57.8846V57.0459H103.822V53.007H104.699V56.2329H106.299V53.007H107.19V56.2329H107.667L107.551 57.8846H106.815ZM108.287 57.0459V53.007H111.332V53.7941H109.164V54.607H111.074V55.4071H109.164V56.2458H111.358V57.0459H108.287ZM112.158 57.0459V53.007H113.035V54.5941H114.674V53.007H115.564V57.0459H114.674V55.42H113.035V57.0459H112.158ZM117.474 57.0459V53.8199H116.248V53.007H119.59V53.8199H118.364V57.0459H117.474ZM120.274 57.0459V53.007H121.926C122.403 53.007 122.778 53.136 123.049 53.3941C123.332 53.6522 123.462 53.9877 123.462 54.4135C123.462 54.8651 123.32 55.2135 123.01 55.4587C122.7 55.7039 122.313 55.8329 121.836 55.8329H121.165V57.0459H120.274ZM121.165 55.0329H121.861C122.081 55.0329 122.249 54.9813 122.378 54.8651C122.507 54.749 122.571 54.5941 122.571 54.4135C122.571 54.2199 122.507 54.0651 122.378 53.9618C122.249 53.8586 122.068 53.807 121.849 53.807H121.165V55.0329ZM127.746 57.1104C127.152 57.1104 126.662 56.9039 126.262 56.5039C125.875 56.1039 125.681 55.6135 125.681 55.02C125.681 54.4393 125.875 53.9489 126.275 53.536C126.662 53.136 127.165 52.9295 127.784 52.9295C128.133 52.9295 128.43 52.9941 128.662 53.0973C128.907 53.2134 129.126 53.3812 129.346 53.5876L128.817 54.207C128.636 54.0393 128.481 53.936 128.326 53.8586C128.171 53.7941 127.991 53.7554 127.771 53.7554C127.436 53.7554 127.152 53.8715 126.933 54.1167C126.713 54.3619 126.61 54.6587 126.61 55.02C126.61 55.3813 126.713 55.6781 126.933 55.9232C127.152 56.1684 127.436 56.2845 127.771 56.2845C127.991 56.2845 128.171 56.2458 128.339 56.1684C128.494 56.1039 128.662 55.9749 128.842 55.82L129.397 56.4265C129.178 56.6588 128.946 56.8265 128.688 56.9426C128.43 57.0588 128.12 57.1104 127.746 57.1104ZM130.107 57.0459V53.007H133.152V53.7941H130.997V54.607H132.894V55.4071H130.997V56.2458H133.191V57.0459H130.107ZM133.978 57.0459V53.007H135.63C136.107 53.007 136.482 53.136 136.753 53.3941C137.036 53.6522 137.165 53.9877 137.165 54.4135C137.165 54.8651 137.011 55.2135 136.714 55.4587C136.404 55.7039 136.017 55.8329 135.54 55.8329H134.869V57.0459H133.978ZM134.869 55.0329H135.565C135.785 55.0329 135.952 54.9813 136.082 54.8651C136.211 54.749 136.275 54.5941 136.275 54.4135C136.275 54.2199 136.211 54.0651 136.082 53.9618C135.952 53.8586 135.772 53.807 135.552 53.807H134.869V55.0329ZM138.766 57.0459V53.8199H137.54V53.007H140.882V53.8199H139.656V57.0459H138.766ZM145.037 53.007V57.0459H144.172V54.3877L142.404 57.0459H141.566V53.007H142.443V55.6523L144.224 53.007H145.037ZM148.663 54.0006V55.9749C148.985 55.9749 149.243 55.8845 149.45 55.7039C149.644 55.5232 149.747 55.2909 149.747 54.9813C149.747 54.6845 149.644 54.4522 149.45 54.2715C149.243 54.0909 148.985 54.0006 148.663 54.0006ZM148.663 57.2007H147.772V56.762C147.153 56.762 146.676 56.5942 146.314 56.2587C145.953 55.9232 145.772 55.4974 145.772 54.9684C145.772 54.4522 145.953 54.0393 146.314 53.7038C146.676 53.3812 147.153 53.2134 147.772 53.2134V52.8521H148.663V53.2134C149.269 53.2134 149.747 53.3812 150.121 53.7038C150.482 54.0393 150.663 54.4651 150.663 54.9813C150.663 55.4974 150.482 55.9232 150.121 56.2587C149.76 56.5942 149.269 56.762 148.663 56.762V57.2007ZM147.772 55.9749V54.0006C147.45 54.0006 147.179 54.0909 146.985 54.2715C146.779 54.4522 146.676 54.6845 146.676 54.9813C146.676 55.2909 146.779 55.5232 146.985 55.7039C147.179 55.8845 147.45 55.9749 147.772 55.9749ZM154.87 53.007V57.0459H153.992V54.3877L152.224 57.0459H151.386V53.007H152.263V55.6523L154.044 53.007H154.87ZM155.837 57.0459V53.007H156.728V54.7619L158.354 53.007H159.438L157.786 54.7103L159.502 57.0459H158.444L157.192 55.3168L156.728 55.8071V57.0459H155.837ZM159.696 57.0459L161.425 52.9682H162.251L163.98 57.0459H163.051L162.676 56.1297H160.973L160.599 57.0459H159.696ZM161.296 55.3555H162.367L161.825 54.0393L161.296 55.3555ZM167.593 57.8846V57.0459H164.599V53.007H165.489V56.2329H167.077V53.007H167.967V56.2329H168.444L168.328 57.8846H167.593ZM172.548 53.007V57.0459H171.67V54.3877L169.903 57.0459H169.064V53.007H169.941V55.6523L171.722 53.007H172.548ZM177 53.007V57.0459H176.122V54.3877L174.354 57.0459H173.516V53.007H174.393V55.6523L176.174 53.007H177ZM111.164 59.9364V63.9753H110.287V61.33L108.519 63.9753H107.68V59.9364H108.558V62.5816L110.338 59.9364H111.164ZM113.435 64.814V63.1752H113.809C113.977 62.801 114.08 62.4139 114.158 62.0139C114.222 61.601 114.261 61.0719 114.261 60.4009V59.9364H117.19V63.1752H117.681L117.564 64.814H116.816V63.9753H114.3L114.235 64.814H113.435ZM116.313 60.7364H115.113V61.1493C115.113 61.9106 114.997 62.5816 114.751 63.1752H116.313V60.7364ZM118.3 63.9753V59.9364H121.345V60.7235H119.19V61.5364H121.087V62.3365H119.19V63.1752H121.371V63.9753H118.3ZM122.171 63.9753V59.9364H123.049V61.7042L124.687 59.9364H125.771L124.12 61.6526L125.836 63.9753H124.778L123.526 62.2461L123.049 62.7365V63.9753H122.171ZM126.907 59.9364H129.797V63.9753H128.907V60.7364H127.746V61.0461C127.746 61.8332 127.694 62.4397 127.604 62.8784C127.513 63.3043 127.371 63.614 127.191 63.7688C127.01 63.9366 126.752 64.0269 126.429 64.0269C126.249 64.0269 126.094 64.0011 125.965 63.9753L126.029 63.2397C126.081 63.2397 126.12 63.2527 126.158 63.2527C126.287 63.2527 126.404 63.2268 126.481 63.1623C126.571 63.1107 126.649 62.9946 126.713 62.8268C126.791 62.6591 126.842 62.401 126.868 62.0655C126.894 61.73 126.907 61.3042 126.907 60.7751V59.9364ZM130.417 63.9753L132.146 59.9105H132.972L134.701 63.9753H133.772L133.398 63.0591H131.694L131.32 63.9753H130.417ZM132.017 62.2849H133.088L132.546 60.9687L132.017 62.2849ZM135.32 63.9753V59.9364H136.972C137.449 59.9364 137.824 60.0654 138.107 60.3235C138.378 60.5815 138.52 60.917 138.52 61.3429C138.52 61.7945 138.366 62.1429 138.056 62.3881C137.746 62.6333 137.359 62.7623 136.882 62.7623H136.211V63.9753H135.32ZM136.211 61.9752H136.907C137.127 61.9752 137.307 61.9106 137.424 61.7945C137.553 61.6784 137.617 61.5364 137.617 61.3429C137.617 61.1493 137.553 60.9945 137.424 60.8912C137.294 60.788 137.127 60.7364 136.894 60.7364H136.211V61.9752ZM142.65 59.9364V63.9753H141.772V61.33L140.004 63.9753H139.178V59.9364H140.056V62.5816L141.824 59.9364H142.65ZM143.617 63.9753V59.9364H145.269C145.747 59.9364 146.121 60.0654 146.405 60.3235C146.676 60.5815 146.818 60.917 146.818 61.3429C146.818 61.7945 146.663 62.1429 146.353 62.3881C146.043 62.6333 145.656 62.7623 145.179 62.7623H144.508V63.9753H143.617ZM144.508 61.9752H145.217C145.437 61.9752 145.605 61.9106 145.734 61.7945C145.85 61.6784 145.914 61.5364 145.914 61.3429C145.914 61.1493 145.85 60.9945 145.721 60.8912C145.605 60.788 145.424 60.7364 145.192 60.7364H144.508V61.9752ZM150.973 63.4333C150.56 63.8333 150.044 64.0398 149.437 64.0398C148.818 64.0398 148.314 63.8333 147.901 63.4333C147.501 63.0333 147.295 62.5429 147.295 61.9494C147.295 61.3687 147.501 60.8783 147.914 60.4783C148.314 60.0654 148.831 59.8589 149.45 59.8589C150.056 59.8589 150.573 60.0654 150.973 60.4654C151.386 60.8783 151.592 61.3687 151.592 61.9494C151.592 62.53 151.386 63.0204 150.973 63.4333ZM148.572 62.8526C148.805 63.0978 149.089 63.2268 149.45 63.2268C149.798 63.2268 150.095 63.0978 150.315 62.8526C150.547 62.6075 150.663 62.3107 150.663 61.9494C150.663 61.601 150.547 61.3042 150.315 61.059C150.082 60.8009 149.785 60.6848 149.437 60.6848C149.076 60.6848 148.792 60.8009 148.56 61.0461C148.34 61.2913 148.224 61.601 148.224 61.9494C148.224 62.3107 148.34 62.6075 148.572 62.8526ZM152.379 63.9753V59.9364H154.25C154.715 59.9364 155.063 60.0525 155.308 60.2977C155.489 60.4783 155.579 60.7106 155.579 60.9945C155.579 61.3687 155.412 61.6655 155.05 61.859C155.308 61.9623 155.489 62.0784 155.618 62.2332C155.747 62.3881 155.812 62.6075 155.812 62.8655C155.812 63.2268 155.67 63.4978 155.399 63.6914C155.141 63.872 154.766 63.9753 154.302 63.9753H152.379ZM153.244 61.5622H154.057C154.482 61.5622 154.702 61.4203 154.702 61.1235C154.702 60.9945 154.65 60.8912 154.547 60.8138C154.457 60.7493 154.302 60.7106 154.121 60.7106H153.244V61.5622ZM153.244 63.1881H154.302C154.715 63.1881 154.921 63.0462 154.921 62.7365C154.921 62.4526 154.702 62.2978 154.263 62.2978H153.244V63.1881ZM156.199 63.9753L157.928 59.9105H158.741L160.47 63.9753H159.541L159.179 63.0591H157.463L157.102 63.9753H156.199ZM157.786 62.2849H158.857L158.328 60.9687L157.786 62.2849ZM161.102 63.9753V59.9364H161.98V61.5364H163.618V59.9364H164.509V63.9753H163.618V62.3494H161.98V63.9753H161.102ZM168.961 59.9364V63.9753H168.083V61.33L166.315 63.9753H165.477V59.9364H166.354V62.5816L168.135 59.9364H168.961ZM173.116 59.9364V63.9753H172.238V62.6849H171.541L170.664 63.9753H169.632L170.612 62.53C170.045 62.3107 169.748 61.8977 169.748 61.2655C169.748 60.8525 169.89 60.5299 170.161 60.2848C170.432 60.0525 170.806 59.9364 171.27 59.9364H173.116ZM171.335 61.8977H172.238V60.7364H171.348C171.129 60.7364 170.961 60.788 170.832 60.8912C170.716 60.9816 170.651 61.1364 170.651 61.33C170.651 61.4977 170.716 61.6397 170.832 61.7429C170.961 61.8461 171.129 61.8977 171.335 61.8977Z" fill="#8E2E1E"/>
</svg>
