<svg width="44" height="42" viewBox="0 0 44 42" fill="none" xmlns="http://www.w3.org/2000/svg">
<path d="M10.2157 32.2466C10.8427 36.4551 13.9946 39.6322 18.1669 40.2436C18.7855 40.3338 19.4234 40.3206 20.0516 40.3182C20.6027 40.317 20.9614 40.5493 20.9915 40.9945C21.0227 41.447 20.6677 41.7708 20.1009 41.7864C16.1367 41.8983 12.9596 40.3832 10.6165 37.17C10.442 36.9305 10.2855 36.904 10.0147 36.969C7.52117 37.5731 5.17804 37.2783 3.11651 35.662C-1.12687 32.3369 -1.43857 25.0223 4.69665 22.1111C5.0264 21.9547 5.15397 21.7922 5.15156 21.4179C5.1323 19.0002 5.14193 16.5836 5.14193 14.1659C5.14193 14.0167 5.14193 13.8674 5.14193 13.7314C4.84468 13.5666 4.55465 13.4366 4.29831 13.2597C3.36443 12.6134 3.33314 11.5279 4.30072 10.937C4.86033 10.5952 5.52583 10.3654 6.1745 10.2378C7.64753 9.94898 9.1338 9.98147 10.5755 10.4508C10.9931 10.5868 11.4143 10.7998 11.7537 11.0766C12.4626 11.6531 12.4325 12.5376 11.7393 13.1333C11.6153 13.2404 11.4805 13.3644 11.3301 13.4065C10.7729 13.5593 10.7067 13.9336 10.7127 14.4487C10.7392 16.7906 10.7308 19.1338 10.7175 21.4757C10.7163 21.7922 10.8042 21.9486 11.1075 22.0714C11.5612 22.2555 11.986 22.5155 12.4541 22.7598C13.4121 21.9486 14.5 21.3 15.6975 20.8318C15.7805 20.7993 15.8563 20.6297 15.8575 20.5238C15.8659 16.7244 15.8671 12.9263 15.8515 9.12702C15.8515 9.00427 15.6902 8.84421 15.5651 8.76598C15.1475 8.50724 14.6661 8.33394 14.2942 8.02465C13.4578 7.32906 13.4843 6.32778 14.3087 5.62135C15.0392 4.99556 15.9297 4.72839 16.8492 4.5575C19.0045 4.15674 21.1503 4.16998 23.2443 4.87882C23.7702 5.05693 24.2865 5.35779 24.7125 5.71402C25.4382 6.32297 25.4527 7.29055 24.745 7.92116C24.3419 8.28099 23.8063 8.48919 23.3418 8.78524C23.2275 8.85745 23.0843 9.00427 23.0843 9.11739C23.071 12.9901 23.0734 16.864 23.0734 20.7416C23.2058 20.7993 23.3346 20.8366 23.4441 20.9052C23.745 21.0954 23.8593 21.3854 23.7714 21.7212C23.6836 22.057 23.4357 22.3145 23.0891 22.2543C22.6715 22.1821 22.2563 22.0245 21.8784 21.8307C21.7412 21.7609 21.6437 21.4793 21.6437 21.294C21.6305 16.9844 21.6353 12.6748 21.6317 8.36644C21.6317 7.88626 21.9145 7.69491 22.3225 7.55531C22.8195 7.38441 23.2973 7.16057 23.7847 6.9596C23.7859 6.88618 23.7883 6.81157 23.7895 6.73816C23.4441 6.56245 23.1168 6.31936 22.7497 6.22188C20.5775 5.64422 18.3932 5.63218 16.2197 6.21706C15.8479 6.31695 15.5145 6.55764 15.1102 6.76102C15.5386 7.26287 16.0392 7.38321 16.5122 7.53605C17.2066 7.75989 17.3065 7.87302 17.3065 8.57584C17.3065 12.7506 17.3065 16.9242 17.3065 21.099C17.3065 21.7296 17.197 21.8644 16.6049 22.0786C13.0041 23.3832 10.8788 25.9321 10.2037 29.6941C10.0556 30.5197 10.0689 30.5293 10.8295 30.8494C11.8656 31.2863 12.9102 31.6882 14.0595 31.7352C14.9862 31.7737 15.766 31.4704 16.4207 30.8277C16.6662 30.5858 16.9105 30.3391 17.132 30.0744C18.4317 28.5207 20.0528 27.8973 22.0842 28.1693C24.6584 28.5135 26.9774 29.4221 29.0125 31.0287C29.2195 31.1912 29.4096 31.5149 29.4132 31.7664C29.4205 32.3224 28.767 32.598 28.2808 32.2791C27.9041 32.0324 27.5539 31.7484 27.176 31.5041C25.3095 30.2922 23.2491 29.6748 21.0372 29.5521C20.285 29.51 19.6147 29.7506 19.0599 30.2621C18.7181 30.5762 18.3848 30.906 18.0851 31.2598C16.5856 33.0289 14.6938 33.5319 12.4938 32.9795C11.726 32.7858 10.9859 32.4981 10.2157 32.2466ZM5.12268 12.0959C5.43197 12.2187 5.62091 12.3041 5.81828 12.3691C6.50786 12.5942 6.5933 12.7037 6.5933 13.4258C6.59451 16.3381 6.59451 19.2493 6.5933 22.1617C6.5933 22.8464 6.48379 22.9908 5.85799 23.2183C3.47153 24.0884 2.0671 25.7985 1.54841 28.2644C1.46056 28.6832 1.49426 29.0117 2.01054 29.1357C2.44378 29.2404 2.85416 29.4402 3.285 29.5569C4.28267 29.8289 5.15156 29.6062 5.8604 28.83C6.09266 28.5749 6.33576 28.3294 6.57766 28.0839C7.07709 27.5796 7.67641 27.1331 8.37201 27.156C9.23609 27.1837 9.5526 26.7673 9.87874 26.0729C10.2482 25.2822 10.8006 24.5782 11.3133 23.7719C10.8427 23.5697 10.3613 23.3398 9.86309 23.1557C9.47437 23.0125 9.2758 22.7778 9.2758 22.359C9.27941 19.3119 9.27941 16.2659 9.2758 13.2188C9.2758 12.7783 9.4816 12.5268 9.90522 12.4149C10.1531 12.3487 10.3878 12.2343 10.6285 12.1405C8.81849 11.3281 7.03256 11.3125 5.12268 12.0959ZM9.6585 35.5345C9.15425 34.4164 8.77517 33.2888 8.72703 32.101C8.67889 30.9312 8.75471 29.7567 8.77758 28.5063C8.5405 28.6038 8.20353 28.682 7.94117 28.8673C7.62707 29.0887 7.3587 29.3836 7.10477 29.676C6.19616 30.7255 5.0613 31.2369 3.67733 31.072C2.99136 30.9902 2.31983 30.7928 1.65432 30.6508C2.09598 33.9471 5.91696 36.6789 9.6585 35.5345Z" fill="white"/>
<path d="M31.7224 23.1989C31.7224 24.3626 31.7236 25.4566 31.7224 26.5505C31.72 27.5145 31.1447 28.0981 30.1916 28.1006C28.7956 28.103 27.3984 28.1042 26.0024 28.1006C25.1118 28.0981 24.5173 27.4964 24.5161 26.5974C24.5137 23.8343 24.5149 21.0724 24.5149 18.3092C24.5149 17.2057 24.8711 16.7568 25.9566 16.5185C25.9566 15.8662 25.9542 15.2079 25.9578 14.5484C25.9602 13.9262 26.2021 13.6892 26.8352 13.688C27.6908 13.6856 28.5477 13.6856 29.4033 13.688C30.0352 13.6892 30.2783 13.9274 30.2819 14.5484C30.2855 15.2079 30.2831 15.8662 30.2831 16.5353C31.6658 16.7303 31.8175 17.6991 31.7164 18.8039C35.8081 19.3899 38.7542 21.5465 40.5606 25.175C42.3585 28.7841 42.2948 32.4161 40.3006 36.0313C40.8097 36.0313 41.2694 36.0301 41.7279 36.0313C42.6594 36.0349 43.2539 36.6186 43.2575 37.5369C43.2611 38.4683 43.2623 39.3986 43.2575 40.3301C43.2527 41.1954 42.651 41.7947 41.7797 41.7959C35.5626 41.7983 29.3456 41.7983 23.1285 41.7959C22.2319 41.7959 21.6386 41.1978 21.6338 40.3012C21.6302 39.4455 21.6326 38.5899 21.6326 37.7342C21.6326 36.6704 22.0129 36.201 23.0744 35.988C23.0744 35.3213 23.0708 34.6474 23.0756 33.9734C23.0792 33.403 23.3283 33.1515 23.8999 33.1515C26.7076 33.1491 29.5165 33.1491 32.3241 33.1515C32.8476 33.1515 33.1666 33.4367 33.1605 33.8808C33.1533 34.3212 32.8368 34.5896 32.3037 34.5896C29.8859 34.592 27.4682 34.5908 25.0504 34.5908C24.888 34.5908 24.7255 34.5908 24.5402 34.5908C24.5402 35.0722 24.5402 35.5175 24.5402 36.0337C24.6882 36.0337 24.8459 36.0337 25.0035 36.0337C28.0519 36.0337 31.1002 36.0398 34.1486 36.0217C34.4049 36.0205 34.7166 35.9158 34.9092 35.7509C37.156 33.8266 37.9022 31.3691 37.2066 28.5422C36.5061 25.7045 34.6492 23.9414 31.7224 23.1989ZM23.0936 40.3253C29.348 40.3253 35.5687 40.3253 41.7809 40.3253C41.7809 39.3589 41.7809 38.4226 41.7809 37.4935C35.535 37.4935 29.3251 37.4935 23.0936 37.4935C23.0936 38.4406 23.0936 39.3661 23.0936 40.3253ZM36.7432 36.0313C37.3125 36.0313 37.7782 36.053 38.2403 36.0193C38.4004 36.0085 38.6074 35.9026 38.6976 35.7726C39.7579 34.2598 40.3307 32.5606 40.3512 30.7253C40.3921 27.0945 38.9419 24.1568 36.0223 21.981C34.423 20.7896 32.5756 20.2769 30.6056 20.1758C29.9738 20.1433 29.5911 20.4105 29.5658 20.8582C29.5393 21.3191 29.8847 21.585 30.5334 21.6199C30.8475 21.6368 31.1604 21.6633 31.4721 21.703C36.4544 22.324 39.924 27.4146 38.6988 32.285C38.3534 33.6581 37.7156 34.876 36.7432 36.0313ZM25.9879 18.0312C25.9879 20.9219 25.9879 23.7801 25.9879 26.6384C27.4261 26.6384 28.8317 26.6384 30.259 26.6384C30.259 25.4385 30.259 24.2591 30.259 23.0833C29.0014 22.91 28.1445 22.111 28.1493 21.005C28.1517 20.5525 28.3142 20.0554 28.5417 19.6583C28.9039 19.0277 29.5514 18.7641 30.259 18.7016C30.259 18.4609 30.259 18.2563 30.259 18.0312C28.8329 18.0312 27.4273 18.0312 25.9879 18.0312ZM27.4188 16.545C27.9159 16.545 28.3599 16.545 28.8112 16.545C28.8112 16.0648 28.8112 15.6111 28.8112 15.161C28.3275 15.161 27.8725 15.161 27.4188 15.161C27.4188 15.6376 27.4188 16.0816 27.4188 16.545Z" fill="white"/>
<path d="M10.8188 2.15907C10.8176 0.97126 11.8057 -0.00955737 12.9971 7.02796e-05C14.1693 0.00969793 15.1417 0.982091 15.1429 2.14824C15.1441 3.33485 14.1536 4.31807 12.9634 4.30844C11.7912 4.29882 10.8201 3.32642 10.8188 2.15907ZM12.9923 1.45746C12.6192 1.45024 12.2606 1.80044 12.2678 2.16389C12.275 2.51289 12.612 2.84143 12.9694 2.84865C13.3425 2.85587 13.7023 2.50687 13.6951 2.14222C13.6867 1.79442 13.3485 1.46468 12.9923 1.45746Z" fill="white"/>
<path d="M10.8174 5.76451C10.815 6.93065 9.84265 7.90305 8.67048 7.91147C7.48027 7.9199 6.49223 6.93788 6.49463 5.75006C6.49704 4.58392 7.46823 3.61152 8.6404 3.6043C9.82941 3.59588 10.8199 4.5779 10.8174 5.76451ZM9.36849 5.74164C9.35766 5.37579 8.98579 5.03882 8.61753 5.06169C8.2577 5.08455 7.93156 5.42634 7.94239 5.77173C7.95323 6.13758 8.32509 6.47455 8.69335 6.45168C9.05198 6.43002 9.37812 6.08703 9.36849 5.74164Z" fill="white"/>
</svg>
